# File created by Blade
# Date/Time:  Tue Apr 07 20:57:09 2015
# Frame Rate: 120.000 fps
#------------------------------------------------------
:FULLY-SPECIFIED
:DEGREES
607
root -11.879226 24.836135 9.037875 268.312066 -86.975341 -241.990580
Spine 7.371859 -5.482895 -3.676378
Head -59.685139 0.109889 5.706873
LeftShoulder -2.149786 18.677982 31.199429
LeftArm 88.056674 -7.821577 -59.034849
LeftForeArm 4.806231 -0.000000 28.039188
LeftHand 24.020734 -0.000000 23.737468
LeftHandThumb1 -26.253704 0.000000 33.147579
RightShoulder 4.695475 27.572261 -28.138675
RightArm 44.943001 -13.166666 69.602437
RightForeArm -22.574287 -0.000000 36.798968
RightHand 21.438355 -0.000000 -24.325699
RightHandThumb1 -24.326973 -0.000000 -32.862282
LeftUpLeg -86.958435 1.000251 -8.748348
LeftLeg 67.697992 -0.000000 -0.000000
LeftFoot -5.318918 -1.103883 -8.477418
LeftToeBase -20.175364 -0.000000 0.000000
RightUpLeg -88.109496 0.052410 1.775524
RightLeg 68.105576 -0.000000 -0.000000
RightFoot -10.924907 -10.365140 3.333964
RightToeBase 0.010023 -0.000000 -0.000000
608
root -11.930289 24.487568 8.995141 270.294514 -87.172933 -246.507586
Spine 7.219961 -5.192261 -3.669166
Head -59.407093 -0.263695 5.796931
LeftShoulder -2.061590 17.581312 32.614932
LeftArm 89.823725 -11.274717 -60.914142
LeftForeArm 2.037341 -0.000000 31.249314
LeftHand 23.933391 -0.000000 25.086956
LeftHandThumb1 -26.253704 0.000000 33.147579
RightShoulder 4.303702 29.162546 -29.852842
RightArm 45.946668 -9.718995 68.934747
RightForeArm -21.439550 -0.000000 39.016719
RightHand 22.505800 -0.000000 -26.322394
RightHandThumb1 -24.326973 -0.000000 -32.862282
LeftUpLeg -85.757003 1.679447 -9.081083
LeftLeg 69.898830 -0.000000 -0.000000
LeftFoot -6.096795 -1.992770 -8.222051
LeftToeBase -20.345177 -0.000000 0.000000
RightUpLeg -86.842672 0.050489 1.880661
RightLeg 70.347442 -0.000000 -0.000000
RightFoot -11.775410 -11.081709 3.008572
RightToeBase -0.145334 -0.000000 0.000000
609
root -12.023391 24.142065 8.945070 273.354064 -87.189389 -252.087019
Spine 6.689081 -6.061989 -3.926875
Head -58.480437 0.204638 5.829599
LeftShoulder -2.471579 17.252427 33.762761
LeftArm 91.597749 -15.076730 -63.113153
LeftForeArm -1.317202 0.000000 33.971705
LeftHand 24.378452 -0.000000 25.925847
LeftHandThumb1 -26.253704 0.000000 33.147579
RightShoulder 5.394936 31.013105 -31.065326
RightArm 46.887108 -6.034787 67.971114
RightForeArm -20.121254 -0.000000 40.804298
RightHand 23.627003 -0.000000 -28.343912
RightHandThumb1 -24.326973 -0.000000 -32.862282
LeftUpLeg -84.514337 2.407250 -9.485643
LeftLeg 72.156120 -0.000000 -0.000000
LeftFoot -6.956613 -3.131495 -8.336417
LeftToeBase -20.131365 -0.000000 0.000000
RightUpLeg -85.557997 0.056877 1.797428
RightLeg 72.638777 -0.000000 -0.000000
RightFoot -12.709007 -11.794256 2.747791
RightToeBase -0.310768 -0.000000 0.000000
610
root -12.131075 23.769540 8.894451 279.062687 -87.419990 -260.926809
Spine 7.103174 -5.267220 -3.918962
Head -58.100817 -0.751554 6.199560
LeftShoulder -1.694935 14.999728 36.061536
LeftArm 92.759794 -18.667053 -65.231657
LeftForeArm -5.658655 0.000000 36.611371
LeftHand 24.577613 -0.000000 27.561453
LeftHandThumb1 -26.253704 0.000000 33.147579
RightShoulder 4.282830 32.476841 -33.556799
RightArm 47.226304 -2.269865 66.803024
RightForeArm -17.627710 -0.000000 42.762385
RightHand 23.911268 0.000000 -29.808205
RightHandThumb1 -24.326973 -0.000000 -32.862282
LeftUpLeg -82.770445 3.133742 -9.495987
LeftLeg 74.564835 -0.000000 -0.000000
LeftFoot -7.765008 -4.260540 -8.407357
LeftToeBase -20.140772 -0.000000 0.000000
RightUpLeg -83.733155 -0.034345 1.931746
RightLeg 75.019102 -0.000000 -0.000000
RightFoot -13.611759 -12.405981 2.595960
RightToeBase -0.279745 -0.000000 0.000000
611
root -12.305864 23.436444 8.843315 288.764178 -87.509154 -273.407500
Spine 6.854753 -5.361741 -3.968458
Head -57.555886 -1.088531 6.460580
LeftShoulder -1.478267 13.195201 38.095158
LeftArm 93.941232 -22.314317 -67.303866
LeftForeArm -10.388574 -0.000000 38.580371
LeftHand 24.524466 -0.000000 29.505358
LeftHandThumb1 -26.253704 0.000000 33.147579
RightShoulder 4.010945 34.030411 -35.599164
RightArm 47.380991 1.660402 65.422198
RightForeArm -14.887908 -0.000000 44.444305
RightHand 22.332195 -0.000000 -29.096991
RightHandThumb1 -24.326973 -0.000000 -32.862282
LeftUpLeg -81.125434 3.755473 -9.539426
LeftLeg 76.812698 -0.000000 -0.000000
LeftFoot -8.627855 -5.468320 -8.317853
LeftToeBase -20.557397 -0.000000 0.000000
RightUpLeg -82.062796 -0.260602 2.056058
RightLeg 77.308791 -0.000000 -0.000000
RightFoot -14.479997 -12.974749 2.399965
RightToeBase -0.855918 -0.000000 0.000000
612
root -12.526864 23.139941 8.791283 300.970150 -87.528426 -288.475053
Spine 6.668110 -5.483932 -3.895928
Head -57.277212 -1.542806 6.554288
LeftShoulder -1.358261 11.590890 40.042032
LeftArm 95.098298 -26.331989 -68.964030
LeftForeArm -15.229163 -0.000000 40.298775
LeftHand 22.341556 -0.000000 28.331674
LeftHandThumb1 -26.253704 0.000000 33.147579
RightShoulder 3.544839 35.482498 -37.752658
RightArm 47.495237 5.419638 63.699192
RightForeArm -11.462863 -0.000000 45.467119
RightHand 24.725213 0.000000 -33.345175
RightHandThumb1 -24.326973 -0.000000 -32.862282
LeftUpLeg -79.219770 4.380057 -9.525073
LeftLeg 78.869166 -0.000000 -0.000000
LeftFoot -9.536588 -6.355377 -8.092304
LeftToeBase -20.581913 -0.000000 0.000000
RightUpLeg -80.103516 -0.554701 2.262851
RightLeg 79.403614 -0.000000 -0.000000
RightFoot -15.320208 -13.651622 2.219993
RightToeBase -1.419511 -0.000000 0.000000
613
root -12.785346 22.876950 8.746961 314.428289 -87.319954 -304.745146
Spine 6.317317 -5.752157 -3.766559
Head -57.058836 -2.143627 6.555632
LeftShoulder -1.127811 10.351642 41.830984
LeftArm 96.609728 -30.826222 -70.712498
LeftForeArm -21.770774 -0.000000 41.309707
LeftHand 26.454744 -0.000000 33.792356
LeftHandThumb1 -26.253704 0.000000 33.147579
RightShoulder 3.092057 37.098752 -40.008395
RightArm 47.043905 9.184021 61.765409
RightForeArm -8.668333 -0.000000 46.293720
RightHand 23.519926 0.000000 -33.451811
RightHandThumb1 -24.326973 -0.000000 -32.862282
LeftUpLeg -77.160915 4.918725 -9.562330
LeftLeg 80.703803 -0.000000 -0.000000
LeftFoot -10.605602 -6.874453 -7.599355
LeftToeBase -20.676209 -0.000000 0.000000
RightUpLeg -78.019729 -1.002775 2.465838
RightLeg 81.302558 -0.000000 -0.000000
RightFoot -16.174762 -14.342245 2.065887
RightToeBase -2.200659 -0.000000 0.000000
614
root -13.078671 22.666876 8.704788 326.640281 -86.923027 -319.735081
Spine 5.895624 -6.050234 -3.569743
Head -57.168941 -2.769853 6.514938
LeftShoulder -1.008861 9.212292 43.626635
LeftArm 98.258324 -35.448012 -72.644820
LeftForeArm -26.260848 -0.000000 41.891406
LeftHand 25.736334 0.000000 31.656121
LeftHandThumb1 -26.253704 0.000000 33.147579
RightShoulder 2.534355 36.910993 -42.021579
RightArm 48.121078 13.616703 59.420845
RightForeArm -5.508493 -0.000000 46.502983
RightHand 24.283625 -0.000000 -35.132159
RightHandThumb1 -24.326973 -0.000000 -32.862282
LeftUpLeg -74.876691 5.419511 -9.574421
LeftLeg 82.241501 -0.000000 -0.000000
LeftFoot -11.833315 -7.061842 -7.015729
LeftToeBase -20.442454 -0.000000 0.000000
RightUpLeg -75.729709 -1.555146 2.746402
RightLeg 82.910333 -0.000000 -0.000000
RightFoot -16.933913 -15.166275 1.762342
RightToeBase -3.247712 -0.000000 0.000000
615
root -13.397719 22.513966 8.663625 336.853131 -86.360625 -332.627057
Spine 5.398339 -6.424805 -3.299977
Head -57.840924 -3.236508 6.338176
LeftShoulder -0.983714 8.085755 45.312762
LeftArm 99.680119 -40.385637 -74.228530
LeftForeArm -30.013071 -0.000000 42.281149
LeftHand 25.588617 0.000000 32.837803
LeftHandThumb1 -26.253704 0.000000 33.147579
RightShoulder 1.914164 37.171054 -44.258019
RightArm 48.098163 17.924213 56.916865
RightForeArm -2.828656 -0.000000 46.724096
RightHand 25.438665 0.000000 -38.189970
RightHandThumb1 -24.326973 -0.000000 -32.862282
LeftUpLeg -72.464561 5.901930 -9.573457
LeftLeg 83.577190 -0.000000 -0.000000
LeftFoot -13.176733 -6.853743 -6.269322
LeftToeBase -19.955463 -0.000000 0.000000
RightUpLeg -73.315883 -2.175001 3.097421
RightLeg 84.272001 -0.000000 -0.000000
RightFoot -17.581291 -15.967328 1.343169
RightToeBase -4.446637 -0.000000 0.000000
616
root -13.737990 22.437716 8.631470 343.337307 -85.631680 -341.593814
Spine 4.683823 -6.781663 -3.114149
Head -58.980198 -3.578221 6.241719
LeftShoulder -1.172432 7.329454 47.059482
LeftArm 101.541432 -45.183403 -76.301607
LeftForeArm -33.111078 0.000000 42.400738
LeftHand 25.583832 -0.000000 33.767995
LeftHandThumb1 -26.253704 0.000000 33.147579
RightShoulder 1.047323 37.390268 -46.435420
RightArm 47.611580 21.906118 54.090103
RightForeArm -0.126236 -0.000000 46.823906
RightHand 25.579468 -0.000000 -39.571407
RightHandThumb1 -24.326973 -0.000000 -32.862282
LeftUpLeg -69.926113 6.292181 -9.585509
LeftLeg 84.568262 -0.000000 -0.000000
LeftFoot -14.563188 -6.351443 -5.301752
LeftToeBase -19.855188 -0.000000 0.000000
RightUpLeg -70.836680 -2.846056 3.346999
RightLeg 85.368824 -0.000000 -0.000000
RightFoot -18.076268 -16.715391 0.875237
RightToeBase -5.993421 -0.000000 0.000000
617
root -14.095250 22.442288 8.600758 348.052727 -84.847217 -348.647064
Spine 3.781864 -7.120773 -2.909249
Head -60.482803 -3.751271 6.067659
LeftShoulder -1.768173 7.333663 48.638852
LeftArm 104.562580 -49.705208 -79.276789
LeftForeArm -35.393935 -0.000000 42.185016
LeftHand 25.493502 0.000000 34.474998
LeftHandThumb1 -26.253704 0.000000 33.147579
RightShoulder -0.078161 37.546450 -48.517431
RightArm 47.002784 25.590880 51.216217
RightForeArm 2.279429 -0.000000 46.550692
RightHand 26.297162 -0.000000 -40.101348
RightHandThumb1 -24.326973 -0.000000 -32.862282
LeftUpLeg -67.258737 6.573246 -9.379716
LeftLeg 85.339637 -0.000000 -0.000000
LeftFoot -15.833402 -5.864090 -4.730401
LeftToeBase -19.477964 -0.000000 0.000000
RightUpLeg -68.199945 -3.472945 3.543427
RightLeg 86.154936 -0.000000 -0.000000
RightFoot -18.520200 -17.245389 0.736228
RightToeBase -7.331348 -0.000000 0.000000
